<svg width="75" height="36" viewBox="0 0 75 36" fill="none" xmlns="http://www.w3.org/2000/svg">
<path d="M9.14062 35.3125C6.0026 35.3125 3.73698 34.5312 2.34375 32.9688C0.963542 31.4062 0.273438 28.9193 0.273438 25.5078V22.1484H7.07031V26.4453C7.07031 27.2396 7.1875 27.8646 7.42188 28.3203C7.66927 28.763 8.09245 28.9844 8.69141 28.9844C9.31641 28.9844 9.74609 28.8021 9.98047 28.4375C10.2279 28.0729 10.3516 27.474 10.3516 26.6406C10.3516 25.5859 10.2474 24.707 10.0391 24.0039C9.83073 23.2878 9.46615 22.6107 8.94531 21.9727C8.4375 21.3216 7.72786 20.5664 6.81641 19.707L3.73047 16.7773C1.42578 14.6029 0.273438 12.1159 0.273438 9.31641C0.273438 6.38672 0.950521 4.15365 2.30469 2.61719C3.67188 1.08073 5.64453 0.3125 8.22266 0.3125C11.3737 0.3125 13.6068 1.15234 14.9219 2.83203C16.25 4.51172 16.9141 7.0638 16.9141 10.4883H9.92188V8.125C9.92188 7.65625 9.78516 7.29167 9.51172 7.03125C9.2513 6.77083 8.89323 6.64062 8.4375 6.64062C7.89062 6.64062 7.48698 6.79688 7.22656 7.10938C6.97917 7.40885 6.85547 7.79948 6.85547 8.28125C6.85547 8.76302 6.98568 9.28385 7.24609 9.84375C7.50651 10.4036 8.02083 11.0482 8.78906 11.7773L12.7539 15.5859C13.5482 16.3411 14.2773 17.1419 14.9414 17.9883C15.6055 18.8216 16.1393 19.7982 16.543 20.918C16.9466 22.0247 17.1484 23.3789 17.1484 24.9805C17.1484 28.2096 16.5495 30.7422 15.3516 32.5781C14.1667 34.401 12.0964 35.3125 9.14062 35.3125ZM26.543 35.3125C21.6341 35.3125 19.1797 31.7969 19.1797 24.7656V9.94141C19.1797 3.52214 21.9922 0.3125 27.6172 0.3125C29.9349 0.3125 31.7122 0.78125 32.9492 1.71875C34.1862 2.64323 35.0391 3.9974 35.5078 5.78125C35.9766 7.5651 36.2109 9.73958 36.2109 12.3047H29.4922V9.25781C29.4922 8.51562 29.388 7.89714 29.1797 7.40234C28.9844 6.89453 28.5677 6.64062 27.9297 6.64062C27.1354 6.64062 26.6081 6.90755 26.3477 7.44141C26.1003 7.97526 25.9766 8.5612 25.9766 9.19922V25.8594C25.9766 26.7839 26.0938 27.5391 26.3281 28.125C26.5755 28.6979 27.0508 28.9844 27.7539 28.9844C28.4831 28.9844 28.9648 28.6979 29.1992 28.125C29.4466 27.5391 29.5703 26.7708 29.5703 25.8203V20.918H27.7344V14.9805H36.1328V35H33.3789L32.207 32.1094C31.0091 34.2448 29.1211 35.3125 26.543 35.3125ZM38.8672 35V0.625H48.3203C50.7943 0.625 52.6562 1.3151 53.9062 2.69531C55.1562 4.0625 55.7812 6.06771 55.7812 8.71094V24.8047C55.7812 28.0599 55.2083 30.5729 54.0625 32.3438C52.9297 34.1146 50.9375 35 48.0859 35H38.8672ZM45.7812 28.9258H46.9727C48.2357 28.9258 48.8672 28.3138 48.8672 27.0898V9.35547C48.8672 8.20964 48.7109 7.47396 48.3984 7.14844C48.099 6.8099 47.4805 6.64062 46.543 6.64062H45.7812V28.9258ZM66.7578 35.3125C63.6198 35.3125 61.3542 34.5312 59.9609 32.9688C58.5807 31.4062 57.8906 28.9193 57.8906 25.5078V22.1484H64.6875V26.4453C64.6875 27.2396 64.8047 27.8646 65.0391 28.3203C65.2865 28.763 65.7096 28.9844 66.3086 28.9844C66.9336 28.9844 67.3633 28.8021 67.5977 28.4375C67.8451 28.0729 67.9688 27.474 67.9688 26.6406C67.9688 25.5859 67.8646 24.707 67.6562 24.0039C67.4479 23.2878 67.0833 22.6107 66.5625 21.9727C66.0547 21.3216 65.3451 20.5664 64.4336 19.707L61.3477 16.7773C59.043 14.6029 57.8906 12.1159 57.8906 9.31641C57.8906 6.38672 58.5677 4.15365 59.9219 2.61719C61.2891 1.08073 63.2617 0.3125 65.8398 0.3125C68.9909 0.3125 71.224 1.15234 72.5391 2.83203C73.8672 4.51172 74.5312 7.0638 74.5312 10.4883H67.5391V8.125C67.5391 7.65625 67.4023 7.29167 67.1289 7.03125C66.8685 6.77083 66.5104 6.64062 66.0547 6.64062C65.5078 6.64062 65.1042 6.79688 64.8438 7.10938C64.5964 7.40885 64.4727 7.79948 64.4727 8.28125C64.4727 8.76302 64.6029 9.28385 64.8633 9.84375C65.1237 10.4036 65.638 11.0482 66.4062 11.7773L70.3711 15.5859C71.1654 16.3411 71.8945 17.1419 72.5586 17.9883C73.2227 18.8216 73.7565 19.7982 74.1602 20.918C74.5638 22.0247 74.7656 23.3789 74.7656 24.9805C74.7656 28.2096 74.1667 30.7422 72.9688 32.5781C71.7839 34.401 69.7135 35.3125 66.7578 35.3125Z" fill="black"/>
</svg>
